<?xml version="1.0" encoding="UTF-8" standalone="no"?>
<!-- Created with Inkscape (http://www.inkscape.org/) -->

<svg
   width="200.00003"
   height="35.492249"
   viewBox="0 0 52.916673 9.3906574"
   version="1.1"
   id="svg1"
   inkscape:version="1.3.2 (091e20e, 2023-11-25, custom)"
   sodipodi:docname="INfinite+chemical.svg"
   xml:space="preserve"
   xmlns:inkscape="http://www.inkscape.org/namespaces/inkscape"
   xmlns:sodipodi="http://sodipodi.sourceforge.net/DTD/sodipodi-0.dtd"
   xmlns="http://www.w3.org/2000/svg"
   xmlns:svg="http://www.w3.org/2000/svg"><sodipodi:namedview
     id="namedview1"
     pagecolor="#01204e"
     bordercolor="#eeeeee"
     borderopacity="1"
     inkscape:showpageshadow="0"
     inkscape:pageopacity="0"
     inkscape:pagecheckerboard="0"
     inkscape:deskcolor="#ffffff"
     inkscape:document-units="px"
     showborder="false"
     showguides="false"
     inkscape:zoom="0.3535534"
     inkscape:cx="449.71989"
     inkscape:cy="654.78085"
     inkscape:window-width="1920"
     inkscape:window-height="1001"
     inkscape:window-x="-9"
     inkscape:window-y="-9"
     inkscape:window-maximized="1"
     inkscape:current-layer="layer1"><sodipodi:guide
       position="-21.312173,201.57334"
       orientation="0,-1"
       id="guide11"
       inkscape:locked="false" /><sodipodi:guide
       position="25.862937,183.02607"
       orientation="0,-1"
       id="guide20"
       inkscape:locked="false" /><sodipodi:guide
       position="33.112547,215.41969"
       orientation="0,-1"
       id="guide21"
       inkscape:locked="false" /><sodipodi:guide
       position="27.265227,169.109"
       orientation="0,-1"
       id="guide76"
       inkscape:locked="false" /><sodipodi:guide
       position="-766.0062,143.10831"
       orientation="1,0"
       id="guide7"
       inkscape:locked="false" /><sodipodi:guide
       position="-503.44111,143.10831"
       orientation="1,0"
       id="guide8"
       inkscape:locked="false" /><sodipodi:guide
       position="-2.6476354e-06,228.29022"
       orientation="0,-1"
       id="guide2"
       inkscape:locked="false" /><sodipodi:guide
       position="-2.6476354e-06,203.55175"
       orientation="1,0"
       id="guide22"
       inkscape:locked="false" /><sodipodi:guide
       position="-11.271243,215.56378"
       orientation="1,0"
       id="guide23"
       inkscape:locked="false" /></sodipodi:namedview><defs
     id="defs1" /><g
     inkscape:label="Layer 1"
     inkscape:groupmode="layer"
     id="layer1"
     transform="translate(-110.29161,-76.829505)"><g
       id="g87"
       transform="matrix(0.45213096,0,0,0.45213096,60.425359,62.76743)"><path
         style="font-size:26.4583px;line-height:1.4;font-family:Acme;-inkscape-font-specification:'Acme, Normal';letter-spacing:0px;fill:#f75526;stroke-width:1.32292;stroke-linecap:round"
         d="m 222.99081,49.119885 q 1.37583,0 1.37583,-1.21708 0,-0.42333 -0.60854,-0.79375 -0.58209,-0.37041 -1.45521,-0.74083 -0.84667,-0.37042 -1.71979,-0.82021 -0.84667,-0.47625 -1.45521,-1.29645 -0.58208,-0.82021 -0.58208,-1.87854 0,-1.77271 1.56104,-3.09562 1.56104,-1.32292 3.59833,-1.32292 0.9525,0 1.85208,0.23813 0.92604,0.21166 1.77271,0.68791 l -1.77271,3.22791 q -0.18521,-0.15875 -0.47625,-0.39687 -0.29104,-0.23813 -1.11125,-0.60854 -0.79375,-0.39688 -1.42875,-0.39688 -0.60854,0 -0.95249,0.29105 -0.3175,0.26458 -0.3175,0.76729 0,0.47625 0.89958,0.97895 0.92604,0.47625 2.01083,0.89959 1.08479,0.39687 1.98437,1.34937 0.92604,0.92604 0.92604,2.2225 0,1.85208 -1.53458,3.25437 -1.50812,1.40229 -3.4925,1.40229 -1.26999,0 -2.38124,-0.55563 -1.08479,-0.55562 -1.56104,-1.11125 l -0.47625,-0.55562 2.0902,-2.43416 q 0.15875,0.21166 0.4498,0.52916 0.29104,0.3175 1.1377,0.84667 0.87313,0.52916 1.66688,0.52916 z"
         id="path23" /><path
         style="font-size:26.4583px;line-height:1.4;font-family:Acme;-inkscape-font-specification:'Acme, Normal';letter-spacing:0px;fill:#f75526;stroke-width:1.32292;stroke-linecap:round"
         d="m 212.80434,38.219065 q 1.7727,0 2.88395,1.53459 1.11125,1.53458 1.11125,3.94228 0,3.46604 -1.82562,5.68854 -1.79917,2.19604 -4.68312,2.19604 -1.32292,0 -4.44499,-0.42334 l 0.26458,-6.00603 -0.3175,-13.3879 3.62479,-0.66146 -0.34396,6.82624 v 2.8575 q 0.29104,-0.42333 0.71437,-0.89958 0.42333,-0.47625 1.32292,-1.05834 0.89958,-0.60854 1.69333,-0.60854 z m -1.03188,3.43958 q -1.21708,0 -2.69874,0.74084 v 2.30187 l 0.15875,3.88937 q 1.11125,0.13229 2.0902,0.13229 2.54,0 2.54,-3.51895 0,-3.54542 -2.09021,-3.54542 z"
         id="path26" /><path
         style="font-size:26.4583px;line-height:1.4;font-family:Acme;-inkscape-font-specification:'Acme, Normal';letter-spacing:0px;fill:#f75526;stroke-width:1.32292;stroke-linecap:round"
         d="m 196.02978,51.580515 q -1.56104,0 -2.56645,-0.97896 -0.97896,-1.00542 -0.97896,-2.67229 0,-1.69333 1.53458,-2.91041 1.53458,-1.24354 3.73062,-1.24354 h 1.79917 v -0.44979 q 0,-1.29646 -0.52917,-1.77271 -0.52916,-0.47625 -1.98437,-0.47625 -0.60854,0 -1.45521,0.26458 -0.82021,0.23813 -1.85208,0.76729 l -0.76729,-2.0902 q 1.13771,-0.79375 2.75166,-1.42875 1.64042,-0.635 2.69875,-0.635 4.15395,0 4.15395,4.02166 v 5.18583 q 0,1.48166 0.92604,3.30729 l -2.80458,1.19062 q -0.66145,-1.27 -0.97895,-2.27541 -1.45521,2.19604 -3.67771,2.19604 z m 1.11125,-2.69875 q 1.05833,0 2.40771,-1.08479 v -1.77271 q -1.40229,-0.3175 -2.27542,-0.3175 -1.66687,0 -1.66687,1.48167 0,0.76729 0.42333,1.24354 0.42334,0.44979 1.11125,0.44979 z"
         id="path49" /><path
         style="font-size:26.4583px;line-height:1.4;font-family:Acme;-inkscape-font-specification:'Acme, Normal';letter-spacing:0px;fill:#f75526;stroke-width:1.32292;stroke-linecap:round"
         d="m 182.69478,51.580515 0.3175,-6.42937 -0.3175,-11.2977 3.75708,-0.66145 -0.37042,11.50936 0.18521,4.28624 5.42395,-0.42333 -0.29104,3.01625 z"
         id="path50" /><path
         style="font-size:26.4583px;line-height:1.4;font-family:Acme;-inkscape-font-specification:'Acme, Normal';letter-spacing:0px;fill:#f75526;stroke-width:1.32292;stroke-linecap:round"
         d="m 172.20404,44.78073 q 0,-1.82563 -0.3175,-2.43417 -0.3175,-0.60854 -1.48167,-0.60854 -1.16416,0 -2.64583,0.92604 v 1.93146 l 0.29105,6.2177 -3.54542,0.66146 0.3175,-6.42937 q -0.10583,-3.54541 -0.58208,-6.34999 l 3.20145,-0.68792 q 0.18521,1.53458 0.26459,2.98979 0.39687,-0.52917 0.89958,-1.03188 0.50271,-0.52916 1.5875,-1.16416 1.08479,-0.66146 2.27541,-0.66146 1.21708,0 2.03729,0.9525 0.82021,0.92604 0.82021,2.54 l -0.15875,2.96333 0.29104,6.34999 -3.57187,0.66146 z"
         id="path51" /><path
         style="font-size:26.4583px;line-height:1.4;font-family:Acme;-inkscape-font-specification:'Acme, Normal';letter-spacing:0px;fill:#f75526;stroke-width:1.32292;stroke-linecap:round"
         d="m 150.98447,45.94489 q 0,-3.38666 1.82563,-5.74145 1.82561,-2.35479 4.25978,-2.35479 2.46062,0 3.81,1.5875 1.37583,1.5875 1.37583,4.20687 0,3.49249 -1.77271,5.82082 -1.74626,2.30188 -4.41854,2.30188 -2.19603,0 -3.65124,-1.64042 -1.42875,-1.66687 -1.42875,-4.18041 z m 8.3079,-0.92604 q 0,-3.83645 -2.61937,-3.83645 -2.72521,0 -2.72521,3.59833 0,1.87853 0.76729,2.93687 0.76729,1.05833 2.01083,1.05833 1.27,0 1.905,-0.9525 0.66146,-0.97896 0.66146,-2.80458 z"
         id="path52" /><path
         style="font-size:26.4583px;line-height:1.4;font-family:Acme;-inkscape-font-specification:'Acme, Normal';letter-spacing:0px;fill:#f75526;stroke-width:1.32292;stroke-linecap:round"
         d="m 145.1372,34.14449 q 0,-0.89958 0.68791,-1.5875 0.68792,-0.71437 1.5875,-0.71437 0.89958,0 1.37583,0.5027 0.47625,0.47625 0.47625,1.45521 0,0.97896 -0.68791,1.69333 -0.66146,0.68792 -1.56104,0.68792 -0.87313,0 -1.37584,-0.58208 -0.5027,-0.58209 -0.5027,-1.45521 z"
         id="path53" /><path
         style="font-size:26.4583px;line-height:1.4;font-family:Acme;-inkscape-font-specification:'Acme, Normal';letter-spacing:0px;fill:#f75526;stroke-width:1.32292;stroke-linecap:round"
         d="m 148.86782,38.0074 -0.3175,6.58812 0.29104,6.2177 -3.54541,0.66146 0.3175,-6.42937 -0.29104,-6.37645 z"
         id="path56" /><path
         style="font-size:26.4583px;line-height:1.4;font-family:Acme;-inkscape-font-specification:'Acme, Normal';letter-spacing:0px;fill:#f75526;stroke-width:1.32292;stroke-linecap:round"
         d="m 138.89306,49.01405 q 1.37584,0 1.37584,-1.21708 0,-0.42333 -0.60855,-0.79375 -0.58208,-0.37041 -1.4552,-0.74083 -0.84667,-0.37042 -1.71979,-0.82021 -0.84667,-0.47625 -1.45521,-1.29645 -0.58208,-0.82021 -0.58208,-1.87854 0,-1.77271 1.56104,-3.09562 1.56104,-1.32292 3.59833,-1.32292 0.9525,0 1.85208,0.23813 0.92604,0.21166 1.77271,0.68791 l -1.77271,3.22791 q -0.18521,-0.15875 -0.47625,-0.39687 -0.29104,-0.23813 -1.11125,-0.60854 -0.79375,-0.39688 -1.42875,-0.39688 -0.60854,0 -0.9525,0.29105 -0.3175,0.26458 -0.3175,0.76729 0,0.47625 0.89959,0.97895 0.92604,0.47625 2.01083,0.89959 1.08479,0.39687 1.98437,1.34937 0.92604,0.92604 0.92604,2.2225 0,1.85208 -1.53458,3.25437 -1.50812,1.40229 -3.4925,1.40229 -1.26999,0 -2.38124,-0.55563 -1.08479,-0.55562 -1.56104,-1.11125 l -0.47625,-0.55562 2.0902,-2.43416 q 0.15875,0.21166 0.44979,0.52916 0.29105,0.3175 1.13771,0.84667 0.87313,0.52916 1.66687,0.52916 z"
         id="path57" /><path
         style="font-size:26.4583px;line-height:1.4;font-family:Acme;-inkscape-font-specification:'Acme, Normal';letter-spacing:0px;fill:#f75526;stroke-width:1.32292;stroke-linecap:round"
         d="m 124.57911,51.47468 q -1.42874,0 -2.32833,-0.92605 -0.87312,-0.95249 -0.87312,-2.48708 l 0.15875,-3.0427 -0.29104,-6.34999 3.54541,-0.66146 -0.34396,8.04332 q 0,1.13771 0.39688,1.66688 0.42333,0.52916 1.32291,0.52916 0.89959,0 2.48708,-0.89958 v -1.5875 l -0.29104,-6.95853 3.57187,-0.66146 -0.3175,6.61458 0.0265,2.16958 q 0,1.69333 0.87313,3.41312 l -2.75166,1.21708 q -0.87313,-1.71979 -1.05834,-2.75166 -2.38124,2.67229 -4.12749,2.67229 z"
         id="path58" /><path
         style="font-size:26.4583px;line-height:1.4;font-family:Acme;-inkscape-font-specification:'Acme, Normal';letter-spacing:0px;fill:#f75526;stroke-width:1.32292;stroke-linecap:round"
         d="m 119.57851,36.04949 h -5.63562 l -0.15875,4.86832 h 5.05354 l -0.29104,2.80458 h -4.84187 l -0.0265,0.87313 0.3175,6.87916 h -3.70416 l 0.3175,-6.42937 -0.3175,-11.82686 h 9.5779 z"
         id="path59" /></g></g></svg>
