<?xml version="1.0" encoding="UTF-8" standalone="no"?>
<!-- Created with Inkscape (http://www.inkscape.org/) -->

<svg
   width="155.27904"
   height="183.89842"
   viewBox="0 0 41.084244 48.656458"
   version="1.1"
   id="svg1"
   inkscape:version="1.3.2 (091e20e, 2023-11-25, custom)"
   sodipodi:docname="INfinite+chemical.svg"
   xml:space="preserve"
   xmlns:inkscape="http://www.inkscape.org/namespaces/inkscape"
   xmlns:sodipodi="http://sodipodi.sourceforge.net/DTD/sodipodi-0.dtd"
   xmlns:xlink="http://www.w3.org/1999/xlink"
   xmlns="http://www.w3.org/2000/svg"
   xmlns:svg="http://www.w3.org/2000/svg"><sodipodi:namedview
     id="namedview1"
     pagecolor="#01204e"
     bordercolor="#eeeeee"
     borderopacity="1"
     inkscape:showpageshadow="0"
     inkscape:pageopacity="0"
     inkscape:pagecheckerboard="0"
     inkscape:deskcolor="#ffffff"
     inkscape:document-units="px"
     showborder="false"
     showguides="false"
     inkscape:zoom="0.3535534"
     inkscape:cx="449.71989"
     inkscape:cy="654.78085"
     inkscape:window-width="1920"
     inkscape:window-height="1001"
     inkscape:window-x="-9"
     inkscape:window-y="-9"
     inkscape:window-maximized="1"
     inkscape:current-layer="layer1"><sodipodi:guide
       position="31.043316,154.30985"
       orientation="0,-1"
       id="guide11"
       inkscape:locked="false" /><sodipodi:guide
       position="78.218426,135.76258"
       orientation="0,-1"
       id="guide20"
       inkscape:locked="false" /><sodipodi:guide
       position="85.468036,168.1562"
       orientation="0,-1"
       id="guide21"
       inkscape:locked="false" /><sodipodi:guide
       position="79.620716,121.8455"
       orientation="0,-1"
       id="guide76"
       inkscape:locked="false" /><sodipodi:guide
       position="-713.65071,95.844812"
       orientation="1,0"
       id="guide7"
       inkscape:locked="false" /><sodipodi:guide
       position="-451.08562,95.844812"
       orientation="1,0"
       id="guide8"
       inkscape:locked="false" /><sodipodi:guide
       position="52.355486,181.02673"
       orientation="0,-1"
       id="guide2"
       inkscape:locked="false" /><sodipodi:guide
       position="52.355486,156.28826"
       orientation="1,0"
       id="guide22"
       inkscape:locked="false" /><sodipodi:guide
       position="41.084246,168.30029"
       orientation="1,0"
       id="guide23"
       inkscape:locked="false" /></sodipodi:namedview><defs
     id="defs1"><inkscape:path-effect
       effect="spiro"
       id="path-effect83"
       is_visible="true"
       lpeversion="1" /><linearGradient
       id="linearGradient22"
       inkscape:collect="always"><stop
         style="stop-color:#faa968;stop-opacity:1;"
         offset="0"
         id="stop22" /><stop
         style="stop-color:#f75526;stop-opacity:1;"
         offset="1"
         id="stop23" /></linearGradient><linearGradient
       id="linearGradient100"
       inkscape:collect="always"><stop
         style="stop-color:#f75526;stop-opacity:0;"
         offset="0"
         id="stop101" /><stop
         style="stop-color:#f75526;stop-opacity:1;"
         offset="1"
         id="stop100" /></linearGradient><linearGradient
       id="linearGradient98"
       inkscape:collect="always"><stop
         style="stop-color:#f75526;stop-opacity:1;"
         offset="0"
         id="stop98" /><stop
         style="stop-color:#f75526;stop-opacity:0;"
         offset="1"
         id="stop99" /></linearGradient><linearGradient
       id="linearGradient86"
       inkscape:collect="always"><stop
         style="stop-color:#0dcd8c;stop-opacity:1;"
         offset="0"
         id="stop86" /><stop
         style="stop-color:#018391;stop-opacity:1;"
         offset="1"
         id="stop87" /></linearGradient><linearGradient
       inkscape:collect="always"
       xlink:href="#linearGradient86"
       id="linearGradient83"
       gradientUnits="userSpaceOnUse"
       x1="555.69482"
       y1="110.75405"
       x2="588.90784"
       y2="110.75405" /><linearGradient
       inkscape:collect="always"
       xlink:href="#linearGradient100"
       id="linearGradient84"
       gradientUnits="userSpaceOnUse"
       gradientTransform="matrix(1.1699781,0,0,1.1699781,-83.056417,18.054606)"
       x1="136.8311"
       y1="22.320383"
       x2="136.8311"
       y2="33.092319" /><linearGradient
       inkscape:collect="always"
       xlink:href="#linearGradient98"
       id="linearGradient85"
       gradientUnits="userSpaceOnUse"
       gradientTransform="matrix(1.1699781,0,0,1.1699781,-83.056417,18.054606)"
       x1="140.86845"
       y1="22.723515"
       x2="140.86845"
       y2="33.496857" /><linearGradient
       inkscape:collect="always"
       xlink:href="#linearGradient22"
       id="linearGradient87"
       gradientUnits="userSpaceOnUse"
       gradientTransform="matrix(0,1.1699781,-1.1699781,0,39.164759,-60.458325)"
       x1="77.069633"
       y1="-35.062851"
       x2="80.112335"
       y2="-35.062851" /></defs><g
     inkscape:label="Layer 1"
     inkscape:groupmode="layer"
     id="layer1"
     transform="translate(-57.936124,-29.566007)"><g
       id="g89"><path
         style="fill:url(#linearGradient83);stroke:none;stroke-width:0.79375;stroke-linecap:round;stroke-dasharray:none;stroke-opacity:1"
         d="m 555.70463,104.76337 c 0.0453,-0.47976 0.25944,-0.93784 0.57885,-1.29866 0.31941,-0.36082 0.74061,-0.6259 1.19582,-0.78401 0.91042,-0.31622 1.9246,-0.20356 2.83522,0.11207 0.91063,0.31563 1.7405,0.82226 2.57344,1.30711 0.83293,0.48486 1.68881,0.9565 2.62352,1.19141 1.10112,0.27673 2.26609,0.21073 3.37603,-0.0282 1.10995,-0.2389 2.17561,-0.64572 3.23583,-1.05189 1.06022,-0.40618 2.12507,-0.81473 3.23421,-1.05733 1.10914,-0.24259 2.27334,-0.31442 3.37628,-0.045 0.958,0.234 1.83447,0.71453 2.75063,1.07947 0.45807,0.18246 0.92983,0.33704 1.41677,0.41461 0.48694,0.0776 0.99091,0.0764 1.4678,-0.0489 0.78767,-0.20702 1.45293,-0.73519 2.21956,-1.01007 0.38331,-0.13744 0.79918,-0.20996 1.19975,-0.13673 0.20029,0.0366 0.39475,0.10983 0.56444,0.22235 0.16968,0.11253 0.31406,0.26494 0.40911,0.445 0.14504,0.27475 0.16932,0.60027 0.1276,0.90814 -0.0417,0.30787 -0.14528,0.60342 -0.24501,0.89766 -0.4897,1.44477 -0.9056,2.92652 -1.62442,4.27206 -0.48342,0.90491 -1.09703,1.73435 -1.75086,2.52497 -0.64151,0.77572 -1.32511,1.51869 -2.07565,2.18948 -1.42854,1.27673 -3.09418,2.28307 -4.87749,2.98347 -2.58341,1.01465 -5.42053,1.38315 -8.17482,1.04056 -3.10011,-0.3856 -6.07781,-1.67384 -8.50392,-3.64193 -2.90066,-2.35305 -5.0025,-5.68813 -5.81389,-9.33399 -0.0842,-0.37831 -0.15521,-0.76579 -0.1188,-1.15164 z"
         id="path61"
         inkscape:path-effect="#path-effect83"
         inkscape:original-d="m 555.70463,104.76337 c 2.25742,-2.37087 6.5381,0.70755 9.80685,0.52792 4.46035,-0.24512 10.4489,-6.380882 13.22235,-2.18241 2.58693,3.9161 3.70092,1.30728 5.6352,1.44516 1.46925,0.10474 3.32875,-1.49796 4.39286,-0.47945 0.43576,0.41709 0.0108,1.21637 -0.11741,1.8058 -0.32376,1.48869 -1.11566,2.91511 -1.62442,4.27206 -0.50877,1.35695 -1.20935,1.6963 -1.75086,2.52497 -0.54151,0.82867 -1.38377,1.45965 -2.07565,2.18948 -0.69188,0.72982 -3.25166,1.98898 -4.87749,2.98347 -1.62583,0.99449 -5.44988,0.69371 -8.17482,1.04056 -2.72494,0.34686 -5.66928,-2.42795 -8.50392,-3.64193 -2.83463,-1.21397 -4.62634,-5.86617 -5.81389,-9.33399 -0.12503,-0.3651 -0.38492,-0.87215 -0.1188,-1.15164 z"
         transform="matrix(1.1307222,0,0,1.1307222,-568.58057,-57.74412)"
         sodipodi:nodetypes="aasaaassssssaa" /><g
         id="g1"><path
           style="color:#000000;fill:url(#linearGradient84);stroke:none;stroke-width:2.05421;stroke-linecap:round;stroke-dasharray:none;stroke-opacity:1"
           d="m 74.009513,44.197427 a 0.64165817,0.64165817 0 0 0 -0.801926,0.423497 c 0,0 -0.654041,2.115156 -0.982384,4.572602 -0.164066,1.228687 -0.250001,2.547545 -0.121631,3.764709 0.12837,1.217104 0.462598,2.362595 1.262758,3.162755 0.473677,0.4737 1.110555,0.644646 1.747058,0.711721 0.636503,0.06704 1.301846,0.02328 1.919595,-0.06084 1.235555,-0.165108 2.294174,-0.492093 2.294174,-0.492093 a 0.64165817,0.64165817 0 0 0 0.423521,-0.802008 0.64165817,0.64165817 0 0 0 -0.801997,-0.423474 c 0,0 -0.974942,0.298625 -2.084304,0.447014 -0.554687,0.07394 -1.139851,0.107404 -1.617647,0.05721 -0.477795,-0.05043 -0.819698,-0.192286 -0.972568,-0.345097 -0.479316,-0.479328 -0.782493,-1.331751 -0.894097,-2.390219 -0.111499,-1.058397 -0.03802,-2.293157 0.117759,-3.458806 0.311611,-2.331251 0.937257,-4.364744 0.937257,-4.364744 a 0.64165817,0.64165817 0 0 0 -0.425486,-0.801961 z"
           id="path62" /><path
           style="color:#000000;fill:#f75526;fill-opacity:1;stroke:none;stroke-width:2.05421;stroke-linecap:round;stroke-dasharray:none;stroke-opacity:1"
           d="m 80.42916,54.089615 a 0.45612138,0.45612138 0 0 0 -0.317743,0.145194 0.45612138,0.45612138 0 0 0 0.02328,0.643137 l 0.843156,0.78825 -0.843156,0.788249 a 0.45612138,0.45612138 0 0 0 -0.02328,0.645067 0.45612138,0.45612138 0 0 0 0.645103,0.02328 l 1.554936,-1.454891 -1.554983,-1.452856 a 0.45612138,0.45612138 0 0 0 -0.32743,-0.123198 z"
           id="path70" /><path
           style="color:#000000;fill:url(#linearGradient85);stroke:none;stroke-width:2.05421;stroke-linecap:round;stroke-dasharray:none;stroke-opacity:1"
           d="m 83.678177,44.579799 c -0.636491,-0.06704 -1.303812,-0.02328 -1.921583,0.06084 -1.235509,0.165365 -2.292128,0.492128 -2.292128,0.492128 a 0.64165817,0.64165817 0 0 0 -0.423544,0.801985 0.64165817,0.64165817 0 0 0 0.801962,0.423508 c 0,0 0.974978,-0.298999 2.084339,-0.447025 0.554652,-0.07406 1.137886,-0.10717 1.61567,-0.05721 0.477772,0.05043 0.821664,0.192286 0.97451,0.345109 0.479316,0.479328 0.782563,1.331809 0.894144,2.390183 0.111499,1.058409 0.03802,2.293216 -0.117747,3.458865 -0.311647,2.331286 -0.937293,4.364685 -0.937293,4.364685 a 0.64165817,0.64165817 0 0 0 0.425521,0.801973 0.64165817,0.64165817 0 0 0 0.801962,-0.423532 c 0,0 0.654064,-2.115133 0.982348,-4.572555 0.164336,-1.228746 0.250001,-2.547581 0.121631,-3.764709 -0.128358,-1.217163 -0.464539,-2.362595 -1.264723,-3.162802 -0.473677,-0.473654 -1.108589,-0.644622 -1.745104,-0.711721 z"
           id="path76" /><path
           style="color:#000000;fill:#f75526;fill-opacity:1;stroke:none;stroke-width:2.05421;stroke-linecap:round;stroke-dasharray:none;stroke-opacity:1"
           d="m 78.035022,44.291517 -1.554889,1.454914 1.554994,1.452867 a 0.45612138,0.45612138 0 0 0 0.645079,-0.02328 0.45612138,0.45612138 0 0 0 -0.02328,-0.643137 l -0.843145,-0.78825 0.843145,-0.788272 a 0.45612138,0.45612138 0 0 0 0.02328,-0.64508 0.45612138,0.45612138 0 0 0 -0.645102,-0.02328 z"
           id="path78" /></g><path
         style="color:#000000;fill:#f75526;fill-opacity:1;stroke:#f75526;stroke-width:1.16998;stroke-linecap:round;stroke-opacity:1;-inkscape-stroke:none"
         d="m 74.831224,38.058903 c -9.795934,1.820065 -16.751571,10.594935 -16.288295,20.54774 0.463277,9.952805 8.20515,18.045953 18.127805,18.948158 C 86.5934,78.456995 95.667001,71.893464 97.917723,62.187408 100.16845,52.481375 94.908002,42.59389 85.600966,39.036934 a 0.46433505,0.46433505 0 0 0 -0.598701,0.269645 0.46433505,0.46433505 0 0 0 0.267352,0.59869 c 8.880356,3.393884 13.89074,12.810862 11.743199,22.071917 C 94.865286,71.238242 86.223032,77.49016 76.755288,76.629325 67.287545,75.76849 59.912728,68.059739 59.470687,58.563225 59.028646,49.066724 65.655788,40.707277 75.002603,38.970667 a 0.46433505,0.46433505 0 0 0 0.370192,-0.541571 0.46433505,0.46433505 0 0 0 -0.541571,-0.370193 z"
         id="path79" /><path
         style="color:#000000;fill:#f75526;stroke:#f75526;stroke-width:1.16998;stroke-linecap:round;stroke-opacity:1;-inkscape-stroke:none"
         d="m 77.554664,30.150997 c -0.728171,0 -1.347873,0.271786 -1.649845,0.795211 -0.301983,0.523437 -0.255757,1.178039 0.0117,1.83724 0.35324,0.871529 0.626781,1.921432 0.530141,2.860959 -0.09664,0.939528 -0.50852,1.772307 -1.656701,2.408505 a 0.46433505,0.46433505 0 0 0 -0.180528,0.630701 0.46433505,0.46433505 0 0 0 0.630689,0.180516 c 1.383569,-0.766629 2.00856,-1.945744 2.129723,-3.123748 0.121163,-1.178005 -0.205647,-2.351446 -0.591845,-3.304276 -0.20064,-0.495041 -0.175591,-0.840465 -0.06856,-1.026012 0.107053,-0.185547 0.325932,-0.331338 0.845496,-0.331338 h 6.060124 c 0.263701,0 0.286691,0.06131 0.283345,0.05487 -0.0035,-0.007 0.02773,0.09442 -0.109627,0.329056 -0.533381,0.910594 -1.165602,2.277374 -1.19739,3.800136 -0.03182,1.522773 0.595694,3.198626 2.449641,4.510815 a 0.46433505,0.46433505 0 0 0 0.646682,-0.109627 0.46433505,0.46433505 0 0 0 -0.109627,-0.648975 c -1.64004,-1.160793 -2.083157,-2.461821 -2.056599,-3.733868 0.02656,-1.272047 0.581912,-2.517687 1.06943,-3.349975 0.228052,-0.389333 0.333643,-0.828216 0.132535,-1.220252 -0.201107,-0.392048 -0.648226,-0.559858 -1.108273,-0.559858 z"
         id="path80" /><path
         id="path81"
         style="fill:url(#linearGradient87);stroke-width:0.508577;stroke-linecap:round"
         d="m 85.636779,31.491406 c 0,0.986093 -0.810128,1.779946 -1.816414,1.779946 h -7.26567 c -1.006298,0 -1.816414,-0.793853 -1.816414,-1.779946 0,-0.986092 0.810116,-1.779946 1.816414,-1.779946 h 7.26567 c 1.006286,0 1.816414,0.793854 1.816414,1.779946 z" /></g></g></svg>
