<?xml version="1.0" encoding="UTF-8" standalone="no"?>
<!-- Created with Inkscape (http://www.inkscape.org/) -->

<svg
   width="444.17859"
   height="183.89845"
   viewBox="0 0 117.52225 48.656466"
   version="1.1"
   id="svg1"
   inkscape:version="1.3.2 (091e20e, 2023-11-25, custom)"
   sodipodi:docname="INfinite+chemical.svg"
   xml:space="preserve"
   xmlns:inkscape="http://www.inkscape.org/namespaces/inkscape"
   xmlns:sodipodi="http://sodipodi.sourceforge.net/DTD/sodipodi-0.dtd"
   xmlns:xlink="http://www.w3.org/1999/xlink"
   xmlns="http://www.w3.org/2000/svg"
   xmlns:svg="http://www.w3.org/2000/svg"><sodipodi:namedview
     id="namedview1"
     pagecolor="#01204e"
     bordercolor="#eeeeee"
     borderopacity="1"
     inkscape:showpageshadow="0"
     inkscape:pageopacity="0"
     inkscape:pagecheckerboard="0"
     inkscape:deskcolor="#ffffff"
     inkscape:document-units="px"
     showborder="false"
     showguides="false"
     inkscape:zoom="0.3535534"
     inkscape:cx="449.71989"
     inkscape:cy="654.78085"
     inkscape:window-width="1920"
     inkscape:window-height="1001"
     inkscape:window-x="-9"
     inkscape:window-y="-9"
     inkscape:window-maximized="1"
     inkscape:current-layer="layer1"><sodipodi:guide
       position="31.043316,282.32144"
       orientation="0,-1"
       id="guide11"
       inkscape:locked="false" /><sodipodi:guide
       position="78.218426,263.77417"
       orientation="0,-1"
       id="guide20"
       inkscape:locked="false" /><sodipodi:guide
       position="85.468036,296.16779"
       orientation="0,-1"
       id="guide21"
       inkscape:locked="false" /><sodipodi:guide
       position="79.620716,249.8571"
       orientation="0,-1"
       id="guide76"
       inkscape:locked="false" /><sodipodi:guide
       position="-713.65071,223.85641"
       orientation="1,0"
       id="guide7"
       inkscape:locked="false" /><sodipodi:guide
       position="-451.08562,223.85641"
       orientation="1,0"
       id="guide8"
       inkscape:locked="false" /><sodipodi:guide
       position="52.355486,309.03832"
       orientation="0,-1"
       id="guide2"
       inkscape:locked="false" /><sodipodi:guide
       position="52.355486,284.29985"
       orientation="1,0"
       id="guide22"
       inkscape:locked="false" /><sodipodi:guide
       position="41.084246,296.31188"
       orientation="1,0"
       id="guide23"
       inkscape:locked="false" /></sodipodi:namedview><defs
     id="defs1"><linearGradient
       id="linearGradient22"
       inkscape:collect="always"><stop
         style="stop-color:#faa968;stop-opacity:1;"
         offset="0"
         id="stop22" /><stop
         style="stop-color:#f75526;stop-opacity:1;"
         offset="1"
         id="stop23" /></linearGradient><inkscape:path-effect
       effect="spiro"
       id="path-effect19"
       is_visible="true"
       lpeversion="1" /><linearGradient
       id="linearGradient100"
       inkscape:collect="always"><stop
         style="stop-color:#f75526;stop-opacity:0;"
         offset="0"
         id="stop101" /><stop
         style="stop-color:#f75526;stop-opacity:1;"
         offset="1"
         id="stop100" /></linearGradient><linearGradient
       id="linearGradient98"
       inkscape:collect="always"><stop
         style="stop-color:#f75526;stop-opacity:1;"
         offset="0"
         id="stop98" /><stop
         style="stop-color:#f75526;stop-opacity:0;"
         offset="1"
         id="stop99" /></linearGradient><linearGradient
       id="linearGradient86"
       inkscape:collect="always"><stop
         style="stop-color:#0dcd8c;stop-opacity:1;"
         offset="0"
         id="stop86" /><stop
         style="stop-color:#018391;stop-opacity:1;"
         offset="1"
         id="stop87" /></linearGradient><linearGradient
       inkscape:collect="always"
       xlink:href="#linearGradient98"
       id="linearGradient19"
       gradientUnits="userSpaceOnUse"
       gradientTransform="translate(-31.558508,122.61977)"
       x1="140.86845"
       y1="22.723515"
       x2="140.86845"
       y2="33.496857" /><linearGradient
       inkscape:collect="always"
       xlink:href="#linearGradient100"
       id="linearGradient20"
       gradientUnits="userSpaceOnUse"
       gradientTransform="translate(-31.558508,122.61977)"
       x1="136.8311"
       y1="22.320383"
       x2="136.8311"
       y2="33.092319" /><linearGradient
       inkscape:collect="always"
       xlink:href="#linearGradient86"
       id="linearGradient21"
       gradientUnits="userSpaceOnUse"
       x1="555.69482"
       y1="110.75405"
       x2="588.90784"
       y2="110.75405" /><linearGradient
       inkscape:collect="always"
       xlink:href="#linearGradient22"
       id="linearGradient23"
       x1="77.069633"
       y1="-35.062851"
       x2="80.112335"
       y2="-35.062851"
       gradientUnits="userSpaceOnUse"
       gradientTransform="rotate(90,8.696273,64.209718)" /></defs><g
     inkscape:label="Layer 1"
     inkscape:groupmode="layer"
     id="layer1"
     transform="translate(-57.936124,-157.5776)"><g
       id="g23"
       inkscape:export-filename="side.png"
       inkscape:export-xdpi="96"
       inkscape:export-ydpi="96"
       transform="translate(0,26.940767)"><g
         id="g2"
         transform="translate(-53.511864,-8.1441239)"><path
           style="font-size:26.4583px;line-height:1.4;font-family:Acme;-inkscape-font-specification:'Acme, Normal';letter-spacing:0px;fill:#f75526;stroke-width:1.32292;stroke-linecap:round"
           d="m 204.09951,183.09976 q 1.37583,0 1.37583,-1.21708 0,-0.42333 -0.60854,-0.79375 -0.58209,-0.37041 -1.45521,-0.74083 -0.84667,-0.37042 -1.71979,-0.82021 -0.84667,-0.47625 -1.45521,-1.29645 -0.58208,-0.82021 -0.58208,-1.87854 0,-1.77271 1.56104,-3.09562 1.56104,-1.32292 3.59833,-1.32292 0.9525,0 1.85208,0.23813 0.92604,0.21166 1.77271,0.68791 l -1.77271,3.22791 q -0.18521,-0.15875 -0.47625,-0.39687 -0.29104,-0.23813 -1.11125,-0.60854 -0.79375,-0.39688 -1.42875,-0.39688 -0.60854,0 -0.95249,0.29105 -0.3175,0.26458 -0.3175,0.76729 0,0.47625 0.89958,0.97895 0.92604,0.47625 2.01083,0.89959 1.08479,0.39687 1.98437,1.34937 0.92604,0.92604 0.92604,2.2225 0,1.85208 -1.53458,3.25437 -1.50812,1.40229 -3.4925,1.40229 -1.26999,0 -2.38124,-0.55563 -1.08479,-0.55562 -1.56104,-1.11125 l -0.47625,-0.55562 2.0902,-2.43416 q 0.15875,0.21166 0.4498,0.52916 0.29104,0.3175 1.1377,0.84667 0.87313,0.52916 1.66688,0.52916 z"
           id="path20" /><path
           style="font-size:26.4583px;line-height:1.4;font-family:Acme;-inkscape-font-specification:'Acme, Normal';letter-spacing:0px;fill:#f75526;stroke-width:1.32292;stroke-linecap:round"
           d="m 193.91304,172.19894 q 1.7727,0 2.88395,1.53459 1.11125,1.53458 1.11125,3.94228 0,3.46604 -1.82562,5.68854 -1.79917,2.19604 -4.68312,2.19604 -1.32292,0 -4.44499,-0.42334 l 0.26458,-6.00603 -0.3175,-13.3879 3.62479,-0.66146 -0.34396,6.82624 v 2.8575 q 0.29104,-0.42333 0.71437,-0.89958 0.42333,-0.47625 1.32292,-1.05834 0.89958,-0.60854 1.69333,-0.60854 z m -1.03188,3.43958 q -1.21708,0 -2.69874,0.74084 v 2.30187 l 0.15875,3.88937 q 1.11125,0.13229 2.0902,0.13229 2.54,0 2.54,-3.51895 0,-3.54542 -2.09021,-3.54542 z"
           id="path19" /><path
           style="font-size:26.4583px;line-height:1.4;font-family:Acme;-inkscape-font-specification:'Acme, Normal';letter-spacing:0px;fill:#f75526;stroke-width:1.32292;stroke-linecap:round"
           d="m 177.13848,185.56039 q -1.56104,0 -2.56645,-0.97896 -0.97896,-1.00542 -0.97896,-2.67229 0,-1.69333 1.53458,-2.91041 1.53458,-1.24354 3.73062,-1.24354 h 1.79917 v -0.44979 q 0,-1.29646 -0.52917,-1.77271 -0.52916,-0.47625 -1.98437,-0.47625 -0.60854,0 -1.45521,0.26458 -0.82021,0.23813 -1.85208,0.76729 l -0.76729,-2.0902 q 1.13771,-0.79375 2.75166,-1.42875 1.64042,-0.635 2.69875,-0.635 4.15395,0 4.15395,4.02166 v 5.18583 q 0,1.48166 0.92604,3.30729 l -2.80458,1.19062 q -0.66145,-1.27 -0.97895,-2.27541 -1.45521,2.19604 -3.67771,2.19604 z m 1.11125,-2.69875 q 1.05833,0 2.40771,-1.08479 v -1.77271 q -1.40229,-0.3175 -2.27542,-0.3175 -1.66687,0 -1.66687,1.48167 0,0.76729 0.42333,1.24354 0.42334,0.44979 1.11125,0.44979 z"
           id="path17" /><path
           style="font-size:26.4583px;line-height:1.4;font-family:Acme;-inkscape-font-specification:'Acme, Normal';letter-spacing:0px;fill:#f75526;stroke-width:1.32292;stroke-linecap:round"
           d="m 163.80348,185.56039 0.3175,-6.42937 -0.3175,-11.2977 3.75708,-0.66145 -0.37042,11.50936 0.18521,4.28624 5.42395,-0.42333 -0.29104,3.01625 z"
           id="path10" /></g><path
         style="font-size:26.4583px;line-height:1.4;font-family:Acme;-inkscape-font-specification:'Acme, Normal';letter-spacing:0px;fill:#f75526;stroke-width:1.32292;stroke-linecap:round"
         d="m 172.20401,145.85156 q 0,-1.82563 -0.3175,-2.43417 -0.3175,-0.60854 -1.48167,-0.60854 -1.16416,0 -2.64583,0.92604 v 1.93146 l 0.29105,6.2177 -3.54542,0.66146 0.3175,-6.42937 q -0.10583,-3.54541 -0.58208,-6.34999 l 3.20145,-0.68792 q 0.18521,1.53458 0.26459,2.98979 0.39687,-0.52917 0.89958,-1.03188 0.50271,-0.52916 1.5875,-1.16416 1.08479,-0.66146 2.27541,-0.66146 1.21708,0 2.03729,0.9525 0.82021,0.92604 0.82021,2.54 l -0.15875,2.96333 0.29104,6.34999 -3.57187,0.66146 z"
         id="path9" /><path
         style="font-size:26.4583px;line-height:1.4;font-family:Acme;-inkscape-font-specification:'Acme, Normal';letter-spacing:0px;fill:#f75526;stroke-width:1.32292;stroke-linecap:round"
         d="m 150.98444,147.01572 q 0,-3.38666 1.82563,-5.74145 1.82561,-2.35479 4.25978,-2.35479 2.46062,0 3.81,1.5875 1.37583,1.5875 1.37583,4.20687 0,3.49249 -1.77271,5.82082 -1.74626,2.30188 -4.41854,2.30188 -2.19603,0 -3.65124,-1.64042 -1.42875,-1.66687 -1.42875,-4.18041 z m 8.3079,-0.92604 q 0,-3.83645 -2.61937,-3.83645 -2.72521,0 -2.72521,3.59833 0,1.87853 0.76729,2.93687 0.76729,1.05833 2.01083,1.05833 1.27,0 1.905,-0.9525 0.66146,-0.97896 0.66146,-2.80458 z"
         id="path8" /><path
         style="font-size:26.4583px;line-height:1.4;font-family:Acme;-inkscape-font-specification:'Acme, Normal';letter-spacing:0px;fill:#f75526;stroke-width:1.32292;stroke-linecap:round"
         d="m 145.13717,135.21532 q 0,-0.89958 0.68791,-1.5875 0.68792,-0.71437 1.5875,-0.71437 0.89958,0 1.37583,0.5027 0.47625,0.47625 0.47625,1.45521 0,0.97896 -0.68791,1.69333 -0.66146,0.68792 -1.56104,0.68792 -0.87313,0 -1.37584,-0.58208 -0.5027,-0.58209 -0.5027,-1.45521 z"
         id="path5" /><path
         style="font-size:26.4583px;line-height:1.4;font-family:Acme;-inkscape-font-specification:'Acme, Normal';letter-spacing:0px;fill:#f75526;stroke-width:1.32292;stroke-linecap:round"
         d="m 148.86779,139.07823 -0.3175,6.58812 0.29104,6.2177 -3.54541,0.66146 0.3175,-6.42937 -0.29104,-6.37645 z"
         id="path3" /><path
         style="font-size:26.4583px;line-height:1.4;font-family:Acme;-inkscape-font-specification:'Acme, Normal';letter-spacing:0px;fill:#f75526;stroke-width:1.32292;stroke-linecap:round"
         d="m 138.89303,150.08488 q 1.37584,0 1.37584,-1.21708 0,-0.42333 -0.60855,-0.79375 -0.58208,-0.37041 -1.4552,-0.74083 -0.84667,-0.37042 -1.71979,-0.82021 -0.84667,-0.47625 -1.45521,-1.29645 -0.58208,-0.82021 -0.58208,-1.87854 0,-1.77271 1.56104,-3.09562 1.56104,-1.32292 3.59833,-1.32292 0.9525,0 1.85208,0.23813 0.92604,0.21166 1.77271,0.68791 l -1.77271,3.22791 q -0.18521,-0.15875 -0.47625,-0.39687 -0.29104,-0.23813 -1.11125,-0.60854 -0.79375,-0.39688 -1.42875,-0.39688 -0.60854,0 -0.9525,0.29105 -0.3175,0.26458 -0.3175,0.76729 0,0.47625 0.89959,0.97895 0.92604,0.47625 2.01083,0.89959 1.08479,0.39687 1.98437,1.34937 0.92604,0.92604 0.92604,2.2225 0,1.85208 -1.53458,3.25437 -1.50812,1.40229 -3.4925,1.40229 -1.26999,0 -2.38124,-0.55563 -1.08479,-0.55562 -1.56104,-1.11125 l -0.47625,-0.55562 2.0902,-2.43416 q 0.15875,0.21166 0.44979,0.52916 0.29105,0.3175 1.13771,0.84667 0.87313,0.52916 1.66687,0.52916 z"
         id="path2" /><path
         style="font-size:26.4583px;line-height:1.4;font-family:Acme;-inkscape-font-specification:'Acme, Normal';letter-spacing:0px;fill:#f75526;stroke-width:1.32292;stroke-linecap:round"
         d="m 124.57908,152.54551 q -1.42874,0 -2.32833,-0.92605 -0.87312,-0.95249 -0.87312,-2.48708 l 0.15875,-3.0427 -0.29104,-6.34999 3.54541,-0.66146 -0.34396,8.04332 q 0,1.13771 0.39688,1.66688 0.42333,0.52916 1.32291,0.52916 0.89959,0 2.48708,-0.89958 v -1.5875 l -0.29104,-6.95853 3.57187,-0.66146 -0.3175,6.61458 0.0265,2.16958 q 0,1.69333 0.87313,3.41312 l -2.75166,1.21708 q -0.87313,-1.71979 -1.05834,-2.75166 -2.38124,2.67229 -4.12749,2.67229 z"
         id="path1" /><path
         style="font-size:26.4583px;line-height:1.4;font-family:Acme;-inkscape-font-specification:'Acme, Normal';letter-spacing:0px;fill:#f75526;stroke-width:1.32292;stroke-linecap:round"
         d="m 119.57848,137.12032 h -5.63562 l -0.15875,4.86832 h 5.05354 l -0.29104,2.80458 h -4.84187 l -0.0265,0.87313 0.3175,6.87916 h -3.70416 l 0.3175,-6.42937 -0.3175,-11.82686 h 9.5779 z"
         id="text106" /><g
         id="g3"
         inkscape:export-filename="bold.png"
         inkscape:export-xdpi="300"
         inkscape:export-ydpi="300"
         transform="matrix(1.1699781,0,0,1.1699781,-46.133654,-24.337006)"><path
           style="fill:url(#linearGradient21);stroke:none;stroke-width:0.79375;stroke-linecap:round;stroke-dasharray:none;stroke-opacity:1"
           d="m 555.70463,104.76337 c 0.0453,-0.47976 0.25944,-0.93784 0.57885,-1.29866 0.31941,-0.36082 0.74061,-0.6259 1.19582,-0.78401 0.91042,-0.31622 1.9246,-0.20356 2.83522,0.11207 0.91063,0.31563 1.7405,0.82226 2.57344,1.30711 0.83293,0.48486 1.68881,0.9565 2.62352,1.19141 1.10112,0.27673 2.26609,0.21073 3.37603,-0.0282 1.10995,-0.2389 2.17561,-0.64572 3.23583,-1.05189 1.06022,-0.40618 2.12507,-0.81473 3.23421,-1.05733 1.10914,-0.24259 2.27334,-0.31442 3.37628,-0.045 0.958,0.234 1.83447,0.71453 2.75063,1.07947 0.45807,0.18246 0.92983,0.33704 1.41677,0.41461 0.48694,0.0776 0.99091,0.0764 1.4678,-0.0489 0.78767,-0.20702 1.45293,-0.73519 2.21956,-1.01007 0.38331,-0.13744 0.79918,-0.20996 1.19975,-0.13673 0.20029,0.0366 0.39475,0.10983 0.56444,0.22235 0.16968,0.11253 0.31406,0.26494 0.40911,0.445 0.14504,0.27475 0.16932,0.60027 0.1276,0.90814 -0.0417,0.30787 -0.14528,0.60342 -0.24501,0.89766 -0.4897,1.44477 -0.9056,2.92652 -1.62442,4.27206 -0.48342,0.90491 -1.09703,1.73435 -1.75086,2.52497 -0.64151,0.77572 -1.32511,1.51869 -2.07565,2.18948 -1.42854,1.27673 -3.09418,2.28307 -4.87749,2.98347 -2.58341,1.01465 -5.42053,1.38315 -8.17482,1.04056 -3.10011,-0.3856 -6.07781,-1.67384 -8.50392,-3.64193 -2.90066,-2.35305 -5.0025,-5.68813 -5.81389,-9.33399 -0.0842,-0.37831 -0.15521,-0.76579 -0.1188,-1.15164 z"
           id="path11"
           inkscape:path-effect="#path-effect19"
           inkscape:original-d="m 555.70463,104.76337 c 2.25742,-2.37087 6.5381,0.70755 9.80685,0.52792 4.46035,-0.24512 10.4489,-6.380882 13.22235,-2.18241 2.58693,3.9161 3.70092,1.30728 5.6352,1.44516 1.46925,0.10474 3.32875,-1.49796 4.39286,-0.47945 0.43576,0.41709 0.0108,1.21637 -0.11741,1.8058 -0.32376,1.48869 -1.11566,2.91511 -1.62442,4.27206 -0.50877,1.35695 -1.20935,1.6963 -1.75086,2.52497 -0.54151,0.82867 -1.38377,1.45965 -2.07565,2.18948 -0.69188,0.72982 -3.25166,1.98898 -4.87749,2.98347 -1.62583,0.99449 -5.44988,0.69371 -8.17482,1.04056 -2.72494,0.34686 -5.66928,-2.42795 -8.50392,-3.64193 -2.83463,-1.21397 -4.62634,-5.86617 -5.81389,-9.33399 -0.12503,-0.3651 -0.38492,-0.87215 -0.1188,-1.15164 z"
           transform="matrix(0.9664473,0,0,0.9664473,-446.54418,57.833322)"
           sodipodi:nodetypes="aasaaassssssaa" /><path
           style="color:#000000;fill:url(#linearGradient20);stroke:none;stroke-width:1.75577;stroke-linecap:round;stroke-dasharray:none;stroke-opacity:1"
           d="m 102.68839,144.96448 a 0.54843605,0.54843605 0 0 0 -0.68542,0.36197 c 0,0 -0.55902,1.80786 -0.83966,3.90828 -0.14023,1.05018 -0.21368,2.17743 -0.10396,3.21776 0.10972,1.04028 0.39539,2.01935 1.0793,2.70326 0.40486,0.40488 0.94921,0.55099 1.49324,0.60832 0.54403,0.0573 1.11271,0.0199 1.64071,-0.052 1.05605,-0.14112 1.96087,-0.4206 1.96087,-0.4206 a 0.54843605,0.54843605 0 0 0 0.36199,-0.68549 0.54843605,0.54843605 0 0 0 -0.68548,-0.36195 c 0,0 -0.8333,0.25524 -1.78149,0.38207 -0.4741,0.0632 -0.97425,0.0918 -1.38263,0.0489 -0.40838,-0.0431 -0.70061,-0.16435 -0.83127,-0.29496 -0.40968,-0.40969 -0.66881,-1.13827 -0.7642,-2.04296 -0.0953,-0.90463 -0.0325,-1.96 0.10065,-2.9563 0.26634,-1.99256 0.80109,-3.73062 0.80109,-3.73062 a 0.54843605,0.54843605 0 0 0 -0.36367,-0.68545 z"
           id="path12" /><path
           style="color:#000000;fill:#f75526;fill-opacity:1;stroke:none;stroke-width:1.75577;stroke-linecap:round;stroke-dasharray:none;stroke-opacity:1"
           d="m 108.17537,153.4195 a 0.38985463,0.38985463 0 0 0 -0.27158,0.1241 0.38985463,0.38985463 0 0 0 0.0199,0.5497 l 0.72066,0.67373 -0.72066,0.67373 a 0.38985463,0.38985463 0 0 0 -0.0199,0.55135 0.38985463,0.38985463 0 0 0 0.55138,0.0199 l 1.32903,-1.24352 -1.32907,-1.24178 a 0.38985463,0.38985463 0 0 0 -0.27986,-0.1053 z"
           id="path13" /><path
           style="color:#000000;fill:url(#linearGradient19);stroke:none;stroke-width:1.75577;stroke-linecap:round;stroke-dasharray:none;stroke-opacity:1"
           d="m 110.95236,145.2913 c -0.54402,-0.0573 -1.11439,-0.0199 -1.64241,0.052 -1.05601,0.14134 -1.95912,0.42063 -1.95912,0.42063 a 0.54843605,0.54843605 0 0 0 -0.36201,0.68547 0.54843605,0.54843605 0 0 0 0.68545,0.36198 c 0,0 0.83333,-0.25556 1.78152,-0.38208 0.47407,-0.0633 0.97257,-0.0916 1.38094,-0.0489 0.40836,0.0431 0.70229,0.16435 0.83293,0.29497 0.40968,0.40969 0.66887,1.13832 0.76424,2.04293 0.0953,0.90464 0.0325,1.96005 -0.10064,2.95635 -0.26637,1.99259 -0.80112,3.73057 -0.80112,3.73057 a 0.54843605,0.54843605 0 0 0 0.3637,0.68546 0.54843605,0.54843605 0 0 0 0.68545,-0.362 c 0,0 0.55904,-1.80784 0.83963,-3.90824 0.14046,-1.05023 0.21368,-2.17746 0.10396,-3.21776 -0.10971,-1.04033 -0.39705,-2.01935 -1.08098,-2.7033 -0.40486,-0.40484 -0.94753,-0.55097 -1.49157,-0.60832 z"
           id="path14" /><path
           style="color:#000000;fill:#f75526;fill-opacity:1;stroke:none;stroke-width:1.75577;stroke-linecap:round;stroke-dasharray:none;stroke-opacity:1"
           d="m 106.12906,145.0449 -1.32899,1.24354 1.32908,1.24179 a 0.38985463,0.38985463 0 0 0 0.55136,-0.0199 0.38985463,0.38985463 0 0 0 -0.0199,-0.5497 l -0.72065,-0.67373 0.72065,-0.67375 a 0.38985463,0.38985463 0 0 0 0.0199,-0.55136 0.38985463,0.38985463 0 0 0 -0.55138,-0.0199 z"
           id="path15" /><path
           style="color:#000000;fill:#f75526;fill-opacity:1;stroke:#f75526;stroke-linecap:round;stroke-opacity:1;-inkscape-stroke:none"
           d="m 103.39072,139.71778 c -8.37275,1.55564 -14.31785,9.05567 -13.92188,17.5625 0.39597,8.50683 7.01308,15.42418 15.49414,16.19531 8.48107,0.77112 16.23643,-4.83884 18.16016,-13.13477 1.92373,-8.29591 -2.57246,-16.74691 -10.52734,-19.7871 a 0.39687499,0.39687499 0 0 0 -0.51172,0.23047 0.39687499,0.39687499 0 0 0 0.22851,0.51171 c 7.59019,2.90081 11.87265,10.94966 10.03711,18.86524 -1.83553,7.91558 -9.22221,13.2592 -17.31445,12.52343 -8.09224,-0.73577 -14.39562,-7.32457 -14.77344,-15.4414 -0.37782,-8.11682 5.28651,-15.26178 13.27539,-16.74609 a 0.39687499,0.39687499 0 0 0 0.31641,-0.46289 0.39687499,0.39687499 0 0 0 -0.46289,-0.31641 z"
           id="path16" /><path
           style="color:#000000;fill:#f75526;stroke:#f75526;stroke-linecap:round;stroke-opacity:1;-inkscape-stroke:none"
           d="m 105.71849,132.95876 c -0.62238,0 -1.15205,0.2323 -1.41015,0.67968 -0.25811,0.44739 -0.2186,1.00689 0.01,1.57032 0.30192,0.74491 0.53572,1.64228 0.45312,2.44531 -0.0826,0.80303 -0.43464,1.51482 -1.41601,2.05859 a 0.39687499,0.39687499 0 0 0 -0.1543,0.53907 0.39687499,0.39687499 0 0 0 0.53906,0.15429 c 1.18256,-0.65525 1.71675,-1.66306 1.82031,-2.66992 0.10356,-1.00686 -0.17577,-2.00982 -0.50586,-2.82422 -0.17149,-0.42312 -0.15008,-0.71836 -0.0586,-0.87695 0.0915,-0.15859 0.27858,-0.2832 0.72266,-0.2832 h 5.17969 c 0.22539,0 0.24504,0.0524 0.24218,0.0469 -0.003,-0.006 0.0237,0.0807 -0.0937,0.28125 -0.45589,0.7783 -0.99626,1.94651 -1.02343,3.24804 -0.0272,1.30154 0.50915,2.73392 2.09375,3.85547 a 0.39687499,0.39687499 0 0 0 0.55273,-0.0937 0.39687499,0.39687499 0 0 0 -0.0937,-0.55469 c -1.40177,-0.99215 -1.78051,-2.10416 -1.75781,-3.1914 0.0227,-1.08724 0.49737,-2.15191 0.91406,-2.86328 0.19492,-0.33277 0.28517,-0.70789 0.11328,-1.04297 -0.17189,-0.33509 -0.55405,-0.47852 -0.94726,-0.47852 z"
           id="path18" /><path
           id="rect18"
           style="fill:url(#linearGradient23);stroke-width:0.434689;stroke-linecap:round"
           d="m 112.62641,134.10443 c 0,0.84283 -0.69243,1.52135 -1.55252,1.52135 h -6.21009 c -0.8601,0 -1.55252,-0.67852 -1.55252,-1.52135 0,-0.84283 0.69242,-1.52135 1.55252,-1.52135 h 6.21009 c 0.86009,0 1.55252,0.67852 1.55252,1.52135 z" /></g></g></g></svg>
