<?xml version="1.0" encoding="UTF-8" standalone="no"?>
<!-- Created with Inkscape (http://www.inkscape.org/) -->

<svg
   width="35.581532mm"
   height="56.559357mm"
   viewBox="0 0 35.581532 56.559357"
   version="1.1"
   id="svg1"
   xml:space="preserve"
   inkscape:version="1.3.2 (091e20e, 2023-11-25, custom)"
   sodipodi:docname="signature.svg"
   xmlns:inkscape="http://www.inkscape.org/namespaces/inkscape"
   xmlns:sodipodi="http://sodipodi.sourceforge.net/DTD/sodipodi-0.dtd"
   xmlns="http://www.w3.org/2000/svg"
   xmlns:svg="http://www.w3.org/2000/svg"><sodipodi:namedview
     id="namedview1"
     pagecolor="#ffffff"
     bordercolor="#eeeeee"
     borderopacity="1"
     inkscape:showpageshadow="0"
     inkscape:pageopacity="0"
     inkscape:pagecheckerboard="0"
     inkscape:deskcolor="#505050"
     inkscape:document-units="mm"
     showborder="false"
     showguides="false"
     inkscape:zoom="1.3594416"
     inkscape:cx="342.0522"
     inkscape:cy="593.99387"
     inkscape:window-width="1920"
     inkscape:window-height="1001"
     inkscape:window-x="-9"
     inkscape:window-y="-9"
     inkscape:window-maximized="1"
     inkscape:current-layer="layer1"
     inkscape:export-bgcolor="#ffffff00"><sodipodi:guide
       position="-30.016386,221.80617"
       orientation="0,-1"
       id="guide5"
       inkscape:locked="false" /><sodipodi:guide
       position="0.66364032,244.95094"
       orientation="0,-1"
       id="guide6"
       inkscape:locked="false" /></sodipodi:namedview><defs
     id="defs1" /><g
     inkscape:label="Layer 1"
     inkscape:groupmode="layer"
     id="layer1"
     transform="translate(-110.6627,-113.11644)"><path
       id="path2"
       style="color:#000000;fill:#ffffff;fill-opacity:1;stroke:none;stroke-width:0.824487;stroke-linecap:round;stroke-opacity:1;-inkscape-stroke:none"
       d="m 140.66034,113.11693 c -1.4811,-0.0153 -2.96816,0.33101 -4.13624,1.03959 -5.85633,3.55261 -8.99041,9.74227 -10.81993,16.53815 -0.84249,3.12952 -1.39829,6.40358 -1.83251,9.65208 -1.93821,0.87939 -4.21963,1.69429 -6.45403,2.25943 -3.18186,0.80477 -5.83581,1.23005 -5.83581,1.23005 a 1.0907253,1.0907253 0 0 0 -0.90539,1.24964 1.0907253,1.0907253 0 0 0 1.24965,0.90495 c 0,0 2.74169,-0.43987 6.02584,-1.27051 1.83852,-0.465 3.78036,-1.07422 5.61213,-1.79033 -0.28094,2.45986 -0.5219,4.88898 -0.74647,7.20091 l -4.09576,0.026 a 1.0907266,1.0907266 0 0 0 -1.08391,1.09669 1.0907266,1.0907266 0 0 0 1.09839,1.08518 l 3.87166,-0.0242 c -0.46557,4.92993 -0.84849,10.96676 2.76771,14.97619 1.88084,2.08534 5.07413,2.86908 7.72158,2.08047 3.55975,-1.06033 5.60578,-4.4584 7.09654,-7.47657 1.85345,4.01104 3.61346,7.24948 3.61346,7.24948 a 1.0907253,1.0907253 0 0 0 1.49634,0.37707 1.0907253,1.0907253 0 0 0 0.37664,-1.49592 c 0,0 -2.16866,-3.87837 -4.22061,-8.60736 1.39413,-2.89259 3.00682,-6.20856 3.94665,-9.58604 0.55787,-2.00478 0.87084,-4.00245 0.67192,-5.89887 -0.19894,-1.89642 -0.95024,-3.70687 -2.44477,-5.10638 -1.00553,-0.94162 -2.38755,-0.97407 -3.5764,-0.68257 -1.18882,0.29153 -2.31969,0.91448 -2.98544,1.98077 -1.47236,2.3583 -1.65169,5.36879 -1.23855,8.49917 0.41312,3.13036 1.44188,6.42817 2.62157,9.45737 0.1989,0.51075 0.395,0.82226 0.60074,1.31566 -0.11572,0.24206 -0.25151,0.53209 -0.36214,0.76649 -1.43567,3.0416 -3.49319,6.30583 -6.21928,7.11785 -1.71754,0.51161 -4.30877,-0.1544 -5.47834,-1.45118 -2.83534,-3.14363 -2.63978,-8.64294 -2.19296,-13.52967 l 6.68112,-0.0423 a 1.0907266,1.0907266 0 0 0 1.08348,-1.09797 1.0907266,1.0907266 0 0 0 -1.09796,-1.08391 l -6.46214,0.0409 c 0.25627,-2.69608 0.51973,-5.50116 0.8726,-8.33894 0.51034,-0.2754 1.1526,-0.47843 1.58453,-0.78908 4.02166,-2.89233 9.46048,-6.64116 13.47048,-10.9145 2.005,-2.13667 3.66447,-4.4104 4.57976,-6.84091 0.91529,-2.4305 1.04545,-5.05828 -0.0468,-7.61208 -0.71522,-1.67221 -2.4906,-2.34236 -4.17372,-2.4767 -0.21039,-0.0169 -0.42198,-0.0261 -0.63356,-0.0282 z m -0.01,2.18487 c 0.15899,-4e-4 0.31604,0.006 0.46993,0.0175 1.23121,0.0983 2.08352,0.55348 2.34339,1.16103 0.86261,2.01679 0.77356,3.95479 0.01,5.98407 -0.76422,2.02931 -2.24418,4.1093 -4.12858,6.11745 -3.7235,3.96803 -8.9611,7.62225 -12.99244,10.51869 0.39451,-2.657 0.7849,-5.33246 1.45926,-7.83747 1.75363,-6.51393 4.65483,-12.09384 9.84382,-15.24162 0.6869,-0.41669 1.88233,-0.71691 2.99524,-0.71962 z m 0.44906,24.88219 c 0.49353,-0.028 0.88363,0.0855 1.04345,0.23519 1.09054,1.02121 1.60833,2.24562 1.76519,3.74085 0.15679,1.49521 -0.0903,3.24641 -0.60245,5.08721 -0.69389,2.49359 -1.845,5.05324 -3.00164,7.50216 -1.05171,-2.77718 -1.95297,-5.72365 -2.30758,-8.41053 -0.3772,-2.85817 -0.13388,-5.362 0.92585,-7.05947 0.2184,-0.34984 0.92308,-0.83694 1.65398,-1.01616 0.18272,-0.0448 0.35871,-0.0699 0.5232,-0.0792 z"
       inkscape:export-filename="..\..\Fusion Labs\WEB-first\web-icon-logos\fl.svg"
       inkscape:export-xdpi="300"
       inkscape:export-ydpi="300" /></g></svg>
