<?xml version="1.0" encoding="utf-8"?>
<!-- Generator: Adobe Illustrator 26.0.3, SVG Export Plug-In . SVG Version: 6.00 Build 0)  -->
<svg version="1.1" id="Instagram" xmlns="http://www.w3.org/2000/svg" xmlns:xlink="http://www.w3.org/1999/xlink" x="0px" y="0px"
	 viewBox="0 0 480 270" style="enable-background:new 0 0 480 270;" xml:space="preserve">
<style type="text/css">
	.st0{fill:#F7F7F7;}
</style>
<g>
	<path class="st0" d="M54.05,82.6c-8.49,3.55-17.82,13.58-20.77,26.19c-3.74,15.96,11.8,22.7,13.07,20.5
		c1.49-2.61-2.79-3.48-3.67-11.76c-1.13-10.7,3.84-22.66,10.1-27.91c1.17-0.96,1.11,0.39,1.11,2.89c0,4.5-0.25,44.76-0.25,53.17
		c0,11.38-0.47,14.96-1.33,18.5c-0.85,3.6-2.21,6.02-1.18,6.97c1.17,1.04,6.13-1.44,9.01-5.46c3.44-4.81,4.66-10.59,4.88-16.87
		c0.25-7.56,0.24-19.57,0.25-26.41c0-6.29,0.1-24.68-0.1-35.75C65.12,83.96,57.59,81.12,54.05,82.6 M445.43,142.34
		c-1.21,0-1.79,1.27-2.26,3.4c-1.61,7.43-3.3,9.11-5.49,9.11c-2.44,0-4.63-3.68-5.2-11.04c-0.44-5.78-0.37-16.44,0.2-27.05
		c0.11-2.17-0.48-4.33-6.32-6.46c-2.52-0.9-6.18-2.26-7.99,2.14c-5.15,12.4-7.15,22.27-7.63,26.26c-0.01,0.21-0.27,0.24-0.31-0.24
		c-0.29-3.2-0.97-9.03-1.05-21.27c-0.03-2.37-0.52-4.41-3.17-6.08c-1.71-1.07-6.9-2.99-8.77-0.72c-1.61,1.86-3.48,6.85-5.44,12.78
		c-1.58,4.82-2.68,8.09-2.68,8.09s0.01-13,0.04-17.94c0-1.86-1.27-2.48-1.65-2.59c-1.74-0.51-5.16-1.34-6.6-1.34
		c-1.79,0-2.21,1-2.21,2.45c0,0.18-0.3,17.1-0.3,28.94v1.66c-0.97,5.44-4.19,12.83-7.67,12.83s-5.13-3.09-5.13-17.19
		c0-8.22,0.25-11.8,0.37-17.75c0.07-3.43,0.21-6.06,0.2-6.67c-0.03-1.82-3.2-2.75-4.67-3.09c-1.48-0.35-2.76-0.47-3.78-0.42
		c-1.41,0.09-2.41,1.02-2.41,2.32v1.97c-1.82-2.87-4.77-4.88-6.74-5.46c-5.27-1.57-10.79-0.17-14.95,5.64
		c-3.3,4.63-5.29,9.86-6.06,17.38c-0.58,5.5-0.39,11.07,0.63,15.78c-1.24,5.32-3.53,7.5-6.02,7.5c-3.64,0-6.26-5.93-5.96-16.18
		c0.21-6.74,1.55-11.46,3.03-18.32c0.64-2.92,0.11-4.44-1.17-5.92c-1.17-1.33-3.68-2.02-7.28-1.19c-2.55,0.61-6.23,1.25-9.58,1.75
		c0,0,0.2-0.81,0.37-2.23c0.86-7.46-7.25-6.85-9.83-4.47c-1.55,1.42-2.61,3.1-3,6.12c-0.63,4.8,3.27,7.05,3.27,7.05
		c-1.28,5.87-4.41,13.54-7.67,19.08c-1.74,2.98-3.06,5.16-4.78,7.5c-0.02-0.86-0.02-1.74-0.02-2.59
		c-0.03-12.34,0.13-22.05,0.2-25.55c0.07-3.43,0.21-5.99,0.21-6.6c-0.03-1.33-0.8-1.85-2.44-2.47c-1.44-0.56-3.14-0.97-4.91-1.11
		c-2.21-0.17-3.57,1.02-3.53,2.41v1.88c-1.83-2.87-4.78-4.88-6.73-5.46c-5.29-1.57-10.8-0.17-14.96,5.64
		c-3.29,4.63-5.46,11.1-6.08,17.3c-0.56,5.81-0.46,10.72,0.33,14.87c-0.85,4.14-3.26,8.49-5.99,8.49c-3.48,0-5.47-3.09-5.47-17.19
		c0-8.22,0.25-11.8,0.38-17.75c0.07-3.43,0.2-6.06,0.18-6.67c-0.02-1.82-3.19-2.75-4.67-3.09c-1.54-0.36-2.88-0.48-3.89-0.42
		c-1.35,0.11-2.3,1.31-2.3,2.23v2.06c-1.83-2.87-4.78-4.88-6.74-5.46c-5.27-1.57-10.74-0.14-14.93,5.64
		c-2.73,3.77-4.95,7.95-6.09,17.23c-0.31,2.68-0.47,5.19-0.45,7.53c-1.09,6.65-5.9,14.33-9.82,14.33c-2.31,0-4.51-4.46-4.51-13.97
		c0-12.66,0.79-30.71,0.93-32.46c0,0,4.96-0.09,5.94-0.1c2.47-0.02,4.72,0.04,8.01-0.13c1.66-0.08,3.26-6.02,1.54-6.77
		c-0.76-0.33-6.23-0.62-8.41-0.66c-1.83-0.04-6.9-0.42-6.9-0.42s0.45-11.97,0.55-13.23c0.08-1.07-1.27-1.61-2.06-1.93
		c-1.91-0.82-3.61-1.2-5.61-1.61c-2.81-0.58-4.06-0.01-4.3,2.34c-0.37,3.57-0.56,14.03-0.56,14.03c-2.06,0-9.04-0.41-11.09-0.41
		c-1.9,0-3.96,8.18-1.32,8.28c3.03,0.11,8.29,0.23,11.79,0.32c0,0-0.16,18.35-0.16,24v1.75c-1.93,10.02-8.69,15.44-8.69,15.44
		c1.45-6.64-1.51-11.62-6.87-15.82c-1.97-1.57-5.87-4.51-10.22-7.72c0,0,2.52-2.49,4.77-7.49c1.58-3.54,1.65-7.61-2.24-8.5
		c-6.43-1.48-11.72,3.24-13.31,8.29c-1.21,3.89-0.58,6.8,1.83,9.8l0.55,0.68c-1.44,2.79-3.44,6.56-5.12,9.47
		c-4.69,8.11-8.23,14.51-10.9,14.51c-2.14,0-2.12-6.5-2.12-12.59c0-5.25,0.39-13.16,0.71-21.33c0.1-2.7-1.25-4.25-3.52-5.64
		c-1.38-0.85-4.32-2.51-6.02-2.51c-2.54,0-9.9,0.34-16.85,20.43c-0.88,2.54-2.6,7.15-2.6,7.15l0.16-24.17c0-0.56-0.3-1.1-0.99-1.48
		c-1.17-0.63-4.31-1.93-7.08-1.93c-1.34,0-2.01,0.62-2.01,1.85l-0.22,37.79c0,2.88,0.07,6.23,0.35,7.7
		c0.28,1.47,0.75,2.67,1.31,3.38c0.56,0.69,1.23,1.23,2.3,1.47c1,0.21,6.51,0.9,6.8-1.2c0.35-2.52,0.36-5.24,3.26-15.44
		c4.51-15.85,10.38-23.58,13.14-26.33c0.49-0.48,1.04-0.51,1.01,0.28c-0.13,3.48-0.53,12.16-0.82,19.53
		c-0.75,19.76,2.83,23.41,7.98,23.41c3.92,0,9.45-3.91,15.39-13.77c3.71-6.16,7.29-12.18,9.88-16.54c1.78,1.66,3.81,3.45,5.82,5.37
		c4.7,4.44,6.23,8.67,5.21,12.68c-0.78,3.07-3.72,6.23-8.96,3.16c-1.52-0.89-2.17-1.58-3.71-2.6c-0.82-0.55-2.09-0.71-2.84-0.14
		c-1.97,1.48-3.09,3.36-3.74,5.68c-0.61,2.27,1.66,3.45,4.02,4.5c2.02,0.92,6.36,1.72,9.14,1.82c10.82,0.37,19.48-5.22,25.5-19.6
		c1.09,12.42,5.67,19.46,13.64,19.46c5.34,0,10.69-6.9,13.03-13.68c0.66,2.76,1.66,5.16,2.95,7.21c6.15,9.73,18.08,7.64,24.06-0.62
		c1.86-2.57,2.15-3.48,2.15-3.48c0.87,7.8,7.16,10.55,10.76,10.55c4.05,0,8.19-1.92,11.11-8.49c0.35,0.72,0.72,1.4,1.14,2.05
		c6.13,9.73,18.06,7.64,24.06-0.62c0.27-0.41,0.52-0.75,0.73-1.07l0.19,5.13c0,0-3.43,3.13-5.53,5.06
		c-9.24,8.48-16.26,14.91-16.78,22.38c-0.65,9.55,7.08,13.09,12.94,13.55c6.21,0.5,11.54-2.93,14.81-7.75
		c2.88-4.23,4.77-13.33,4.63-22.32c-0.06-3.61-0.14-8.18-0.23-13.1c3.26-3.75,6.92-8.52,10.28-14.1c3.68-6.07,7.6-14.23,9.6-20.59
		c0,0,3.43,0.03,7.07-0.2c1.17-0.07,1.51,0.17,1.28,1.02c-0.25,1.03-4.6,17.8-0.63,28.97c2.72,7.64,8.83,10.11,12.47,10.11
		c4.24,0,8.31-3.22,10.48-7.98c0.27,0.52,0.54,1.04,0.85,1.52c6.13,9.73,18.02,7.63,24.06-0.62c1.37-1.87,2.13-3.48,2.13-3.48
		c1.3,8.08,7.59,10.58,11.18,10.58c3.76,0,7.32-1.54,10.21-8.36c0.11,3.01,0.3,5.46,0.61,6.23c0.18,0.48,1.25,1.07,2.02,1.37
		c3.44,1.27,6.94,0.66,8.22,0.39c0.9-0.18,1.61-0.89,1.69-2.75c0.25-4.88,0.1-13.07,1.58-19.18c2.5-10.21,4.81-14.17,5.91-16.13
		c0.61-1.1,1.31-1.28,1.33-0.13c0.04,2.35,0.17,9.27,1.14,18.57c0.69,6.82,1.64,10.87,2.37,12.16c2.06,3.65,4.63,3.82,6.7,3.82
		c1.33,0,4.09-0.37,3.85-2.7c-0.13-1.13,0.09-8.14,2.52-18.2c1.61-6.59,4.27-12.52,5.23-14.7c0.37-0.8,0.52-0.18,0.52-0.06
		c-0.21,4.53-0.66,19.35,1.17,27.44c2.51,10.99,9.74,12.21,12.27,12.21c5.37,0,9.79-4.09,11.27-14.86
		C447.56,144.34,447.02,142.34,445.43,142.34 M219.95,135.68c-0.3,5.7-1.41,10.46-3.19,13.92c-3.24,6.27-9.63,8.25-12.44-0.79
		c-2.04-6.53-1.35-15.44-0.49-20.25c1.24-7.14,4.39-12.18,9.29-11.72C218.15,117.34,220.6,123.81,219.95,135.68 M269.16,135.77
		c-0.28,5.37-1.68,10.79-3.2,13.83c-3.14,6.32-9.72,8.29-12.44-0.79c-1.86-6.22-1.42-14.24-0.49-19.29
		c1.2-6.57,4.09-12.68,9.3-12.68C267.38,116.84,269.88,122.4,269.16,135.77 M270.44,172.49c-0.07,9.83-1.61,18.43-4.91,20.94
		c-4.71,3.55-11.04,0.87-9.73-6.29c1.16-6.35,6.64-12.82,14.65-20.73C270.45,166.41,270.48,168.21,270.44,172.49 M355.39,135.82
		c-0.28,5.91-1.6,10.52-3.22,13.78c-3.15,6.32-9.66,8.28-12.44-0.79c-1.51-4.95-1.58-13.22-0.49-20.11
		c1.1-7.02,4.19-12.33,9.29-11.86C353.58,117.32,355.94,123.81,355.39,135.82"/>
</g>
</svg>
