<?xml version="1.0" encoding="UTF-8" standalone="no"?>
<svg
   height="56.6934px"
   id="Layer_1"
   style="enable-background:new 0 0 56.6934 56.6934;"
   version="1.1"
   viewBox="0 0 56.6934 56.6934"
   width="56.6934px"
   xml:space="preserve"
   sodipodi:docname="red.svg.svg"
   inkscape:version="1.3.2 (091e20e, 2023-11-25, custom)"
   xmlns:inkscape="http://www.inkscape.org/namespaces/inkscape"
   xmlns:sodipodi="http://sodipodi.sourceforge.net/DTD/sodipodi-0.dtd"
   xmlns="http://www.w3.org/2000/svg"
   xmlns:svg="http://www.w3.org/2000/svg"><defs
     id="defs5" /><sodipodi:namedview
     id="namedview5"
     pagecolor="#505050"
     bordercolor="#eeeeee"
     borderopacity="1"
     inkscape:showpageshadow="0"
     inkscape:pageopacity="0"
     inkscape:pagecheckerboard="0"
     inkscape:deskcolor="#505050"
     inkscape:zoom="8.8928715"
     inkscape:cx="24.682691"
     inkscape:cy="33.453761"
     inkscape:window-width="1920"
     inkscape:window-height="1001"
     inkscape:window-x="-9"
     inkscape:window-y="-9"
     inkscape:window-maximized="1"
     inkscape:current-layer="Layer_1" /><g
     id="g6"
     inkscape:export-filename="red.svg"
     inkscape:export-xdpi="300"
     inkscape:export-ydpi="300"><path
       id="path5"
       style="fill:#ffffff;stroke-width:29.9981;fill-opacity:1"
       d="M 28.347656 4.6484375 A 24.045471 24.045471 0 0 0 4.3007812 28.693359 A 24.045471 24.045471 0 0 0 28.347656 52.738281 A 24.045471 24.045471 0 0 0 52.392578 28.693359 A 24.045471 24.045471 0 0 0 28.347656 4.6484375 z M 30.371094 14.121094 L 36.988281 15.351562 L 36.990234 15.351562 C 37.376334 14.664263 38.091748 14.181572 38.935547 14.138672 C 40.242346 14.071872 41.359081 15.07982 41.425781 16.386719 C 41.492481 17.693517 40.48268 18.810353 39.175781 18.876953 C 37.868883 18.943553 36.752247 17.935705 36.685547 16.628906 C 36.683247 16.584006 36.693059 16.540694 36.693359 16.496094 L 31.201172 15.476562 L 28.964844 23.125 C 32.62004 23.2329 35.932618 24.23512 38.416016 25.824219 C 39.101815 25.220919 39.971379 24.886719 40.892578 24.886719 C 42.963276 24.886719 44.648437 26.57188 44.648438 28.642578 C 44.648338 29.943377 43.968193 31.142373 42.871094 31.826172 C 42.932394 32.190472 42.966797 32.560547 42.966797 32.935547 C 42.966797 38.356041 36.395551 42.765625 28.318359 42.765625 C 20.241067 42.765625 13.671875 38.356041 13.671875 32.935547 C 13.671875 32.549347 13.708538 32.167768 13.773438 31.792969 C 12.705739 31.103869 12.044922 29.923377 12.044922 28.642578 C 12.044922 26.57188 13.730183 24.886719 15.800781 24.886719 C 16.71148 24.886719 17.571807 25.212435 18.253906 25.802734 C 20.748004 24.216536 24.072232 23.220647 27.736328 23.123047 L 30.371094 14.121094 z " /><g
       id="g3"
       style="fill:#ffffff;fill-opacity:1"><path
         d="M32.9098,36.6217c-0.0142,0.0135-1.4175,1.3959-4.618,1.3959c-3.1459,0-4.4017-1.3351-4.4355-1.3719   c-0.2126-0.2439-0.5819-0.2709-0.8283-0.0609c-0.2476,0.2114-0.2765,0.5845-0.0645,0.832c0.062,0.0725,1.5667,1.7805,5.3282,1.7805   c3.7424,0,5.3983-1.6847,5.4672-1.7566c0.2236-0.2341,0.215-0.6028-0.0166-0.8289C33.5094,36.3852,33.1365,36.3907,32.9098,36.6217   z"
         id="path2"
         style="fill:#ffffff;fill-opacity:1" /></g><g
       id="g4"
       style="fill:#ffffff;fill-opacity:1"><circle
         cx="33.2996"
         cy="31.1989"
         r="2.3076"
         id="circle3"
         style="fill:#ffffff;fill-opacity:1" /></g><g
       id="g5"
       style="fill:#ffffff;fill-opacity:1"><circle
         cx="23.6654"
         cy="31.1989"
         r="2.3076"
         id="circle4"
         style="fill:#ffffff;fill-opacity:1" /></g></g></svg>
