<?xml version="1.0" encoding="UTF-8" standalone="no"?>
<svg
   height="48.089844"
   id="Layer_1"
   version="1.1"
   viewBox="0 0 48.091796 48.089843"
   width="48.091797"
   xml:space="preserve"
   sodipodi:docname="red.svg.svg"
   xmlns:inkscape="http://www.inkscape.org/namespaces/inkscape"
   xmlns:sodipodi="http://sodipodi.sourceforge.net/DTD/sodipodi-0.dtd"
   xmlns="http://www.w3.org/2000/svg"
   xmlns:svg="http://www.w3.org/2000/svg"><defs
     id="defs5" /><sodipodi:namedview
     id="namedview5"
     pagecolor="#505050"
     bordercolor="#eeeeee"
     borderopacity="1"
     inkscape:showpageshadow="0"
     inkscape:pageopacity="0"
     inkscape:pagecheckerboard="0"
     inkscape:deskcolor="#505050" /><g
     id="g6"
     transform="translate(-4.3007814,-4.6484376)"><path
       id="path5"
       style="fill:#ffffff;fill-opacity:1;stroke-width:29.9981"
       d="M 28.347656,4.6484375 A 24.045471,24.045471 0 0 0 4.3007812,28.693359 24.045471,24.045471 0 0 0 28.347656,52.738281 24.045471,24.045471 0 0 0 52.392578,28.693359 24.045471,24.045471 0 0 0 28.347656,4.6484375 Z m 2.023438,9.4726565 6.617187,1.230468 h 0.002 c 0.3861,-0.687299 1.101514,-1.16999 1.945313,-1.21289 1.306799,-0.0668 2.423534,0.941148 2.490234,2.248047 0.0667,1.306798 -0.943101,2.423634 -2.25,2.490234 -1.306898,0.0666 -2.423534,-0.941248 -2.490234,-2.248047 -0.0023,-0.0449 0.0075,-0.08821 0.0078,-0.132812 L 31.201172,15.476562 28.964844,23.125 c 3.655196,0.1079 6.967774,1.11012 9.451172,2.699219 0.685799,-0.6033 1.555363,-0.9375 2.476562,-0.9375 2.070698,0 3.755859,1.685161 3.75586,3.755859 -10e-5,1.300799 -0.680245,2.499795 -1.777344,3.183594 0.0613,0.3643 0.0957,0.734375 0.0957,1.109375 0,5.420494 -6.571246,9.830078 -14.648438,9.830078 -8.077292,0 -14.646484,-4.409584 -14.646484,-9.830078 0,-0.3862 0.03666,-0.767779 0.101563,-1.142578 -1.067699,-0.6891 -1.728516,-1.869592 -1.728516,-3.150391 0,-2.070698 1.685261,-3.755859 3.755859,-3.755859 0.910699,0 1.771026,0.325716 2.453125,0.916015 2.494098,-1.586198 5.818326,-2.582087 9.482422,-2.679687 z" /><g
       id="g3"
       style="fill:#ffffff;fill-opacity:1"><path
         d="m 32.9098,36.6217 c -0.0142,0.0135 -1.4175,1.3959 -4.618,1.3959 -3.1459,0 -4.4017,-1.3351 -4.4355,-1.3719 -0.2126,-0.2439 -0.5819,-0.2709 -0.8283,-0.0609 -0.2476,0.2114 -0.2765,0.5845 -0.0645,0.832 0.062,0.0725 1.5667,1.7805 5.3282,1.7805 3.7424,0 5.3983,-1.6847 5.4672,-1.7566 0.2236,-0.2341 0.215,-0.6028 -0.0166,-0.8289 -0.2329,-0.2266 -0.6058,-0.2211 -0.8325,0.0099 z"
         id="path2"
         style="fill:#ffffff;fill-opacity:1" /></g><g
       id="g4"
       style="fill:#ffffff;fill-opacity:1"><circle
         cx="33.299599"
         cy="31.1989"
         r="2.3076"
         id="circle3"
         style="fill:#ffffff;fill-opacity:1" /></g><g
       id="g5"
       style="fill:#ffffff;fill-opacity:1"><circle
         cx="23.6654"
         cy="31.1989"
         r="2.3076"
         id="circle4"
         style="fill:#ffffff;fill-opacity:1" /></g></g></svg>
